<?xml version="1.0" encoding="UTF-8"?>
<svg width="342px" height="63px" viewBox="0 0 342 63" version="1.1" xmlns="http://www.w3.org/2000/svg" xmlns:xlink="http://www.w3.org/1999/xlink">
    <!-- Generator: Sketch 52.6 (67491) - http://www.bohemiancoding.com/sketch -->
    <title>logo</title>
    <desc>Created with Sketch.</desc>
    <g id="Page-1" stroke="none" stroke-width="1" fill="none" fill-rule="evenodd">
        <g id="Android" transform="translate(-9.000000, -289.000000)" fill="#E63A2E">
            <g id="logo" transform="translate(9.000000, 289.000000)">
                <g id="Group-3" transform="translate(38.000000, 0.000000)">
                    <path d="M53.8738739,33.5454545 L72.9369369,33.5454545 C72.6739027,30.2615116 71.8086583,27.8389308 70.3135161,26.2642532 C68.6868568,24.5953642 66.3818459,23.7272727 63.3915615,23.7272727 C60.6712333,23.7272727 58.4077542,24.5953642 56.6772655,26.2642532 C54.9121671,27.9735186 53.9846251,30.4095582 53.8738739,33.5454545 Z M84.6388677,47.3262911 C83.2860868,52.3618869 80.7360947,56.1969434 76.9618359,58.8447997 C73.1740494,61.5993707 68.4460801,63 62.7305807,63 C55.7502311,63 50.3526352,60.7790021 46.4633901,56.3303366 C42.567381,52.0017251 40.6126126,45.8122775 40.6126126,37.7886725 C40.6126126,30.0785417 42.4862142,24.069175 46.2672369,19.7539028 C50.156482,15.2985677 55.5878974,13.0909091 62.5344274,13.0909091 C69.8394444,13.0909091 75.5008326,15.25188 79.5253558,19.5671522 C83.4146009,24.009148 85.3693694,30.2052653 85.3693694,38.135495 L85.3693694,39.402731 L85.3693694,40.1030457 C85.3693694,40.7033154 85.3084942,41.1301738 85.17998,41.3702817 L53.5925455,41.3702817 C53.700768,45.1186325 54.6071312,47.8531945 56.3319269,49.6540036 C57.9011528,51.568197 60.2752833,52.5619768 63.4475546,52.5619768 C65.5173094,52.5619768 67.2826885,52.1351184 68.736928,51.2947408 C69.0903496,51.0734919 69.3427316,50.9286721 69.7132359,50.624201 C70.0040838,50.3107268 70.3754212,49.9617193 70.7406721,49.5815485 C71.0879566,49.1999734 71.3834899,48.8530551 72.1256442,48.2266957 C72.9102571,47.6464349 74.0398292,47.3262911 75.5008326,47.3262911 L84.6388677,47.3262911 Z M169.122553,27.6594262 C167.277342,25.1218027 164.764857,23.8697299 161.571483,23.8697299 C158.146607,23.8697299 155.497945,25.0816293 153.66635,27.4853412 C151.827947,29.8823575 150.901937,33.1899723 150.901937,37.4215766 L150.901937,62.1818182 L138.414414,62.1818182 L138.414414,0 L144.637749,0 C146.380827,0 147.85155,0.595906301 149.077152,1.80111006 C150.289136,2.99961823 150.901937,4.45255832 150.901937,6.12645242 L150.901937,20.4282036 C153.11483,16.8058968 156.240115,14.5026185 160.305028,13.5451511 C164.329088,12.5943792 168.189734,12.8153333 171.880158,14.2883601 C175.305035,15.7078223 178.17839,18.0177961 180.520652,21.1513259 C182.835678,24.2647689 184,28.6168936 184,34.174222 L184,62.1818182 L171.689509,62.1818182 L171.689509,37.240796 C171.689509,35.439686 171.519286,33.779183 171.233312,32.2793739 C170.906485,30.7728692 170.211977,29.2194955 169.122553,27.6594262 Z M31.2264258,62.1818182 L31.2264258,11.0209188 L49.7297297,11.0209188 L49.7297297,6.48801355 C49.7297297,4.67351234 49.1113847,3.15361649 47.8276465,1.88145697 C46.5640718,0.629384183 45.011488,0 43.2035008,0 L0,0 L0,11.0209188 L18.3487177,11.0209188 L18.3487177,62.1818182 L31.2264258,62.1818182 Z M133.441441,47.3262911 C132.112132,52.3618869 129.554731,56.1969434 125.782732,58.8447997 C122.017481,61.5993707 117.2873,63 111.571946,63 C104.648743,63 99.237038,60.7790021 95.3435795,56.3303366 C91.4501211,52.0017251 89.5135135,45.8122775 89.5135135,37.7886725 C89.5135135,30.0785417 91.4028868,24.069175 95.1681377,19.7539028 C99.0548484,15.2985677 104.459805,13.0909091 111.383009,13.0909091 C118.684087,13.0909091 124.331963,15.25188 128.333386,19.5671522 C130.519661,22.2283479 132.112132,25.296393 133.056819,28.7779573 L120.317045,28.7779573 C119.716494,27.5574089 119.0957,26.6570044 118.49515,26.0567347 C116.89593,24.4026581 114.669169,23.5422716 111.747388,23.5422716 C109.075274,23.5422716 106.902495,24.4026581 105.188564,26.0567347 C103.009037,28.4578135 101.915899,32.4195935 101.915899,37.9554141 C101.915899,43.464556 103.009037,47.3796484 105.188564,49.6540036 C106.781035,51.568197 109.129256,52.5619768 112.300704,52.5619768 C114.358772,52.5619768 116.127561,52.1224474 117.564834,51.2820698 C117.954815,50.9896088 118.140417,50.8683051 118.49515,50.6018041 C118.853619,50.2732505 119.143757,49.9671376 119.538075,49.6118865 C119.864413,49.2680358 120.317045,48.813626 121.039056,48.2266957 C121.774562,47.6464349 122.860951,47.3262911 124.331963,47.3262911 L133.441441,47.3262911 Z" id="Fill-1"></path>
                </g>
                <g id="Group-6">
                    <path d="M255.271674,12.2368421 L246.538835,38.3421053 L263.970874,38.3421053 L255.271674,12.2368421 Z M253.489789,0 L263.680784,0 L286.383495,62 L272.775322,62 L268.584569,49.2221385 L244.233809,49.2221385 L240.244859,62 L226.616505,62 L247.334831,4.1190912 C248.417835,1.38860773 250.489667,0 253.489789,0 Z M342,61.859429 C338.012854,62.0925592 333.697354,62.0392723 329.053501,61.6729248 C324.402947,61.3332209 322.07767,58.3691371 322.07767,52.8606039 L322.07767,0 L328.604528,0 C330.165881,0 331.539604,0.592816752 332.765903,1.78511112 C333.958696,2.98406635 334.561794,4.42947349 334.561794,6.09468908 L334.561794,14.2076195 L342,14.2076195 L342,20.6087082 C342,22.4138019 341.396902,23.8725308 340.184006,25.0181991 C338.971109,26.1438849 337.523674,26.7367016 335.835,26.7367016 L334.561794,26.7367016 L334.561794,48.1380525 C334.561794,50.2029198 335.76799,51.2220318 338.187082,51.2220318 C341.236076,51.2220318 342,52.3610392 342,54.9720973 L342,61.859429 Z M19.9223301,62 L33.2038835,62 L33.2038835,16.3157895 L19.9223301,16.3157895 L19.9223301,62 Z M5.07588068,16.3157895 L13.2815534,16.3157895 L13.2815534,29.3684211 L-2.27373675e-13,29.3684211 L-2.27373675e-13,21.2803924 C-2.27373675e-13,17.9662734 1.69196023,16.3157895 5.07588068,16.3157895 Z M-2.27373675e-13,48.9473684 L1.49133253,48.9473684 L11.803596,48.9473684 L13.2815534,48.9473684 L13.2815534,50.9207539 L13.2815534,60.0400847 L13.2815534,62 L11.803596,62 L1.49133253,62 L-2.27373675e-13,62 L-2.27373675e-13,60.0400847 L-2.27373675e-13,50.9207539 L-2.27373675e-13,48.9473684 Z M25.047879,0 L33.1971038,0 L33.2038835,10.6052632 L19.9223301,10.6052632 L19.9224099,4.62892337 C19.9088504,1.5343785 21.6241199,0 25.047879,0 Z M290.533981,62 L290.533981,38.6547431 C290.533981,33.9562002 291.237411,29.9949465 292.630744,26.8111977 C294.044369,23.6006384 295.958511,21.0335315 298.393463,19.1098769 C300.706667,17.2867618 303.412168,15.9730466 306.523495,15.1419206 C309.621294,14.2705788 312.82055,13.8684211 316.107735,13.8684211 L317.014078,13.8684211 L317.927184,13.8684211 L317.927184,26.7039556 L313.733657,26.7039556 C310.202977,26.7039556 307.585405,27.5618921 305.867411,29.244252 C304.169709,30.9266119 303.317476,33.5875556 303.317476,37.2136779 L303.317476,62 L290.533981,62 Z" id="Fill-4"></path>
                </g>
            </g>
        </g>
    </g>
</svg>